<svg width="34" height="47" viewBox="0 0 34 47" fill="none" xmlns="http://www.w3.org/2000/svg">
<path d="M28.2 1H5.8C3.14903 1 1 3.14903 1 5.8V41C1 43.651 3.14903 45.8 5.8 45.8H28.2C30.851 45.8 33 43.651 33 41V5.8C33 3.14903 30.851 1 28.2 1Z" stroke="white" stroke-width="2" stroke-linejoin="round"/>
<path d="M12.2 5.8H21.8" stroke="white" stroke-linecap="round" stroke-linejoin="round"/>
<path d="M24.7479 26.251C24.3705 25.849 23.9134 25.53 23.4058 25.3146C22.8982 25.0992 22.3513 24.9921 21.7999 25C20.6399 25 19.5909 25.441 18.8459 26.243C18.1009 27.045 17.7259 28.155 17.8119 29.343C17.9829 31.691 19.7719 33.6 21.7999 33.6C23.8279 33.6 25.6139 31.691 25.7869 29.345C25.8749 28.167 25.5049 27.068 24.7479 26.251Z" fill="white"/>
<path d="M28.5691 42.6H15.0311C14.8549 42.6028 14.6802 42.5669 14.5193 42.4949C14.3585 42.4228 14.2154 42.3164 14.1001 42.183C13.9752 42.0333 13.8855 41.8575 13.8377 41.6684C13.79 41.4794 13.7853 41.2821 13.8241 41.091C14.1491 39.335 15.1621 37.86 16.7541 36.825C18.1681 35.906 19.9601 35.4 21.8001 35.4C23.6401 35.4 25.4321 35.906 26.8461 36.825C28.4381 37.86 29.4511 39.335 29.7761 41.091C29.815 41.2821 29.8103 41.4794 29.7625 41.6684C29.7148 41.8575 29.6251 42.0333 29.5001 42.183C29.3849 42.3164 29.2418 42.4228 29.0809 42.4949C28.9201 42.5669 28.7454 42.6028 28.5691 42.6Z" fill="white"/>
</svg>
