<svg width="34" height="34" viewBox="0 0 34 34" fill="none" xmlns="http://www.w3.org/2000/svg">
<path d="M29.3077 3.46153H4.69231C2.6531 3.46153 1 5.11464 1 7.15384V29.3077C1 31.3469 2.6531 33 4.69231 33H29.3077C31.3469 33 33 31.3469 33 29.3077V7.15384C33 5.11464 31.3469 3.46153 29.3077 3.46153Z" stroke="white" stroke-width="2" stroke-linejoin="round"/>
<path d="M20.0769 17C21.0965 17 21.923 16.1734 21.923 15.1538C21.923 14.1342 21.0965 13.3077 20.0769 13.3077C19.0573 13.3077 18.2307 14.1342 18.2307 15.1538C18.2307 16.1734 19.0573 17 20.0769 17Z" fill="white"/>
<path d="M26.2308 17C27.2504 17 28.077 16.1734 28.077 15.1538C28.077 14.1342 27.2504 13.3077 26.2308 13.3077C25.2112 13.3077 24.3846 14.1342 24.3846 15.1538C24.3846 16.1734 25.2112 17 26.2308 17Z" fill="white"/>
<path d="M20.0769 23.1538C21.0965 23.1538 21.923 22.3273 21.923 21.3077C21.923 20.2881 21.0965 19.4615 20.0769 19.4615C19.0573 19.4615 18.2307 20.2881 18.2307 21.3077C18.2307 22.3273 19.0573 23.1538 20.0769 23.1538Z" fill="white"/>
<path d="M26.2308 23.1538C27.2504 23.1538 28.077 22.3273 28.077 21.3077C28.077 20.2881 27.2504 19.4615 26.2308 19.4615C25.2112 19.4615 24.3846 20.2881 24.3846 21.3077C24.3846 22.3273 25.2112 23.1538 26.2308 23.1538Z" fill="white"/>
<path d="M7.76925 23.1538C8.78885 23.1538 9.6154 22.3273 9.6154 21.3077C9.6154 20.2881 8.78885 19.4615 7.76925 19.4615C6.74965 19.4615 5.9231 20.2881 5.9231 21.3077C5.9231 22.3273 6.74965 23.1538 7.76925 23.1538Z" fill="white"/>
<path d="M13.9231 23.1538C14.9427 23.1538 15.7692 22.3273 15.7692 21.3077C15.7692 20.2881 14.9427 19.4615 13.9231 19.4615C12.9035 19.4615 12.0769 20.2881 12.0769 21.3077C12.0769 22.3273 12.9035 23.1538 13.9231 23.1538Z" fill="white"/>
<path d="M7.76925 29.3077C8.78885 29.3077 9.6154 28.4811 9.6154 27.4615C9.6154 26.4419 8.78885 25.6154 7.76925 25.6154C6.74965 25.6154 5.9231 26.4419 5.9231 27.4615C5.9231 28.4811 6.74965 29.3077 7.76925 29.3077Z" fill="white"/>
<path d="M13.9231 29.3077C14.9427 29.3077 15.7692 28.4811 15.7692 27.4615C15.7692 26.4419 14.9427 25.6154 13.9231 25.6154C12.9035 25.6154 12.0769 26.4419 12.0769 27.4615C12.0769 28.4811 12.9035 29.3077 13.9231 29.3077Z" fill="white"/>
<path d="M20.0769 29.3077C21.0965 29.3077 21.923 28.4811 21.923 27.4615C21.923 26.4419 21.0965 25.6154 20.0769 25.6154C19.0573 25.6154 18.2307 26.4419 18.2307 27.4615C18.2307 28.4811 19.0573 29.3077 20.0769 29.3077Z" fill="white"/>
<path d="M7.15381 1V3.46154" stroke="white" stroke-width="2" stroke-linecap="round" stroke-linejoin="round"/>
<path d="M26.8462 1V3.46154" stroke="white" stroke-width="2" stroke-linecap="round" stroke-linejoin="round"/>
<path d="M33 9.61539H1" stroke="white" stroke-width="2" stroke-linejoin="round"/>
</svg>
