<svg width="34" height="30" viewBox="0 0 34 30" fill="none" xmlns="http://www.w3.org/2000/svg">
<path d="M26.8462 1H7.15385C5.15385 1 3.84615 2.07692 3.46154 4.07692L1 15.7692V24.3846C1.00284 25.363 1.39276 26.3005 2.08459 26.9923C2.77642 27.6842 3.71392 28.0741 4.69231 28.0769H29.3077C30.2861 28.0741 31.2236 27.6842 31.9154 26.9923C32.6072 26.3005 32.9972 25.363 33 24.3846V15.7692L30.5385 4.07692C30.1538 2 28.7692 1 26.8462 1Z" stroke="white" stroke-width="2" stroke-linejoin="round"/>
<path d="M1 15.7692H12.0769" stroke="white" stroke-width="2" stroke-linecap="round" stroke-linejoin="round"/>
<path d="M21.9231 15.7692H33" stroke="white" stroke-width="2" stroke-linecap="round" stroke-linejoin="round"/>
<path d="M12.0769 15.7692C12.0769 17.0749 12.5956 18.3271 13.5188 19.2504C14.4421 20.1736 15.6943 20.6923 17 20.6923C18.3057 20.6923 19.5579 20.1736 20.4811 19.2504C21.4044 18.3271 21.9231 17.0749 21.9231 15.7692" stroke="white" stroke-width="2" stroke-linecap="round" stroke-linejoin="round"/>
<path d="M8.38464 5.92308H25.6154" stroke="white" stroke-width="2" stroke-linecap="round" stroke-linejoin="round"/>
<path d="M7.15381 10.8462H26.8461" stroke="white" stroke-width="2" stroke-linecap="round" stroke-linejoin="round"/>
</svg>
