<svg width="25" height="35" viewBox="0 0 25 35" fill="none" xmlns="http://www.w3.org/2000/svg">
<path d="M12.1154 33.4666C11.8155 33.1104 11.4371 32.6532 11.0022 32.1113C9.87916 30.7122 8.38337 28.754 6.88951 26.5153C5.39377 24.2737 3.91208 21.769 2.8073 19.2756C1.69681 16.7693 1 14.3468 1 12.25C1 6.01934 5.97998 1 12.1154 1C18.2508 1 23.2308 6.01934 23.2308 12.25C23.2308 14.3468 22.534 16.7693 21.4235 19.2756C20.3187 21.769 18.837 24.2737 17.3413 26.5153C15.8474 28.754 14.3516 30.7122 13.2286 32.1113C12.7936 32.6532 12.4153 33.1104 12.1154 33.4666ZM6.78846 12.25C6.78846 15.2068 9.16425 17.625 12.1154 17.625C15.0665 17.625 17.4423 15.2068 17.4423 12.25C17.4423 9.29316 15.0665 6.875 12.1154 6.875C9.16425 6.875 6.78846 9.29316 6.78846 12.25Z" stroke="#003D69" stroke-width="2"/>
</svg>
