<svg width="34" height="25" viewBox="0 0 34 25" fill="none" xmlns="http://www.w3.org/2000/svg">
<path d="M27.429 6.14279C27.2197 9.04775 25.0647 11.2856 22.7148 11.2856C20.3648 11.2856 18.2062 9.04846 18.0005 6.14279C17.7862 3.12069 19.8841 1 22.7148 1C25.5454 1 27.6433 3.17568 27.429 6.14279Z" stroke="white" stroke-width="2" stroke-linecap="round" stroke-linejoin="round"/>
<path d="M22.7147 15.8569C18.0598 15.8569 13.5834 18.1691 12.462 22.6718C12.3134 23.2676 12.687 23.8568 13.2991 23.8568H32.131C32.7432 23.8568 33.1146 23.2676 32.9682 22.6718C31.8468 18.0969 27.3704 15.8569 22.7147 15.8569Z" stroke="white" stroke-width="2" stroke-miterlimit="10"/>
<path d="M13.0005 7.4242C12.8334 9.74417 11.092 11.5713 9.21486 11.5713C7.33775 11.5713 5.59348 9.74488 5.4292 7.4242C5.25849 5.01066 6.95347 3.28568 9.21486 3.28568C11.4763 3.28568 13.1712 5.05494 13.0005 7.4242Z" stroke="white" stroke-width="2" stroke-linecap="round" stroke-linejoin="round"/>
<path d="M13.4291 15.9998C12.1398 15.4091 10.7199 15.182 9.21487 15.182C5.50064 15.182 1.92211 17.0284 1.0257 20.6247C0.907843 21.1004 1.20641 21.5712 1.69498 21.5712H9.71486" stroke="white" stroke-width="2" stroke-miterlimit="10" stroke-linecap="round"/>
</svg>
