<svg width="34" height="34" viewBox="0 0 34 34" fill="none" xmlns="http://www.w3.org/2000/svg">
<path d="M25.6154 29.2969V2.84615C25.614 2.35696 25.419 1.88821 25.0731 1.5423C24.7272 1.19638 24.2584 1.00142 23.7692 1H2.84615C2.35696 1.00142 1.88821 1.19638 1.5423 1.5423C1.19638 1.88821 1.00142 2.35696 1 2.84615V29.9231C1.00243 30.7384 1.32739 31.5196 1.9039 32.0961C2.48041 32.6726 3.26162 32.9976 4.07692 33H29.3077" stroke="white" stroke-width="2" stroke-linejoin="round"/>
<path d="M29.3077 33C28.3284 33 27.3892 32.611 26.6968 31.9185C26.0044 31.2261 25.6154 30.287 25.6154 29.3077V7.15385H31.1538C31.6434 7.15385 32.113 7.34835 32.4592 7.69457C32.8055 8.04079 33 8.51037 33 9V29.3077C33 30.287 32.611 31.2261 31.9185 31.9185C31.2261 32.611 30.2869 33 29.3077 33Z" stroke="white" stroke-width="2" stroke-linejoin="round"/>
<path d="M15.7693 7.15385H20.6924" stroke="white" stroke-width="2" stroke-linecap="round" stroke-linejoin="round"/>
<path d="M15.7693 12.0769H20.6924" stroke="white" stroke-width="2" stroke-linecap="round" stroke-linejoin="round"/>
<path d="M5.9231 17H20.6923" stroke="white" stroke-width="2" stroke-linecap="round" stroke-linejoin="round"/>
<path d="M5.9231 21.9231H20.6923" stroke="white" stroke-width="2" stroke-linecap="round" stroke-linejoin="round"/>
<path d="M5.9231 26.8462H20.6923" stroke="white" stroke-width="2" stroke-linecap="round" stroke-linejoin="round"/>
<path d="M10.8461 13.3077H5.92303C5.59661 13.3077 5.28356 13.178 5.05274 12.9472C4.82193 12.7164 4.69226 12.4033 4.69226 12.0769V7.15385C4.69226 6.82743 4.82193 6.51438 5.05274 6.28356C5.28356 6.05275 5.59661 5.92308 5.92303 5.92308H10.8461C11.1725 5.92308 11.4856 6.05275 11.7164 6.28356C11.9472 6.51438 12.0769 6.82743 12.0769 7.15385V12.0769C12.0769 12.4033 11.9472 12.7164 11.7164 12.9472C11.4856 13.178 11.1725 13.3077 10.8461 13.3077Z" fill="white"/>
</svg>
